# This file uses centimeters as units for non-parametric coordinates.

mtllib winebottle.mtl
g default
v 10.324501 76.468536 -27.823919
v 6.138623 76.468536 -29.557762
v 1.952756 76.468536 -27.823919
v 0.218907 76.468536 -23.638039
v 1.952756 76.468536 -19.452175
v 6.138623 76.468536 -17.718325
v 10.324501 76.468536 -19.452175
v 12.058339 76.468536 -23.638039
v 10.324501 104.573196 -27.823919
v 6.138623 104.573196 -29.557762
v 1.952756 104.573196 -27.823919
v 0.218907 104.573196 -23.638039
v 1.952756 104.573196 -19.452175
v 6.138623 104.573196 -17.718325
v 10.324501 104.573196 -19.452175
v 12.058339 104.573196 -23.638039
v 8.955616 108.147797 -26.455034
v 6.138623 108.147797 -27.621868
v 3.321638 108.147797 -26.455034
v 2.154801 108.147797 -23.638041
v 3.321638 108.147797 -20.821056
v 6.138623 108.147797 -19.654219
v 8.955616 108.147797 -20.821056
v 10.122447 108.147797 -23.638041
v 7.454228 110.375923 -24.953650
v 6.138626 110.375923 -25.498589
v 4.823021 110.375923 -24.953650
v 4.278079 110.375923 -23.638042
v 4.823021 110.375923 -22.322439
v 6.138626 110.375923 -21.777500
v 7.454228 110.375923 -22.322439
v 7.999171 110.375923 -23.638042
v 7.454228 118.763618 -24.953650
v 6.138626 118.763618 -25.498589
v 4.823021 118.763618 -24.953650
v 4.278079 118.763618 -23.638042
v 4.823021 118.763618 -22.322439
v 6.138626 118.763618 -21.777500
v 7.454228 118.763618 -22.322439
v 7.999171 118.763618 -23.638042
v 4.823021 119.685265 -24.953650
v 4.278079 119.685265 -23.638042
v 7.454228 119.685265 -22.322439
v 7.999171 119.685265 -23.638042
v 4.823021 119.685265 -22.322439
v 6.138626 119.685265 -21.777500
v 6.138626 119.685265 -25.498589
v 7.454228 119.685265 -24.953650
v 4.487987 118.763618 -25.288685
v 3.804267 118.763618 -23.638042
v 3.804267 119.685265 -23.638042
v 4.487987 119.685265 -25.288685
v 7.789263 118.763618 -21.987404
v 8.472982 118.763618 -23.638042
v 8.472982 119.685265 -23.638042
v 7.789263 119.685265 -21.987404
v 4.487987 118.763618 -21.987404
v 6.138626 118.763618 -21.303690
v 6.138626 119.685265 -21.303690
v 4.487987 119.685265 -21.987404
v 6.138626 118.763618 -25.972401
v 6.138626 119.685265 -25.972401
v 7.789263 118.763618 -25.288685
v 7.789263 119.685265 -25.288685
v 4.823021 123.987427 -24.953650
v 4.278079 123.987427 -23.638042
v 7.454228 123.987427 -22.322439
v 7.999171 123.987427 -23.638042
v 4.823021 123.987427 -22.322439
v 6.138626 123.987427 -21.777500
v 6.138626 123.987427 -25.498589
v 7.454228 123.987427 -24.953650
vt 0.375000 0.312500
vt 0.406250 0.312500
vt 0.437500 0.312500
vt 0.468750 0.312500
vt 0.500000 0.312500
vt 0.531250 0.312500
vt 0.562500 0.312500
vt 0.593750 0.312500
vt 0.625000 0.312500
vt 0.375000 0.687500
vt 0.406250 0.687500
vt 0.437500 0.687500
vt 0.468750 0.687500
vt 0.500000 0.687500
vt 0.531250 0.687500
vt 0.562500 0.687500
vt 0.593750 0.687500
vt 0.625000 0.687500
vt 0.610485 0.733265
vt 0.500000 0.687500
vt 0.389515 0.733265
vt 0.343750 0.843750
vt 0.389515 0.954235
vt 0.500000 1.000000
vt 0.610485 0.954235
vt 0.656250 0.843750
vt 0.610485 0.954235
vt 0.500000 1.000000
vt 0.389515 0.954235
vt 0.343750 0.843750
vt 0.389515 0.733265
vt 0.500000 0.687500
vt 0.610485 0.733265
vt 0.656250 0.843750
vt 0.610485 0.954235
vt 0.500000 1.000000
vt 0.389515 0.954235
vt 0.343750 0.843750
vt 0.389515 0.733265
vt 0.500000 0.687500
vt 0.610485 0.733265
vt 0.656250 0.843750
vt 0.610485 0.954235
vt 0.500000 1.000000
vt 0.389515 0.954235
vt 0.343750 0.843750
vt 0.389515 0.733265
vt 0.500000 0.687500
vt 0.610485 0.733265
vt 0.656250 0.843750
vt 0.389515 0.954235
vt 0.343750 0.843750
vt 0.610485 0.733265
vt 0.656250 0.843750
vt 0.389515 0.733265
vt 0.500000 0.687500
vt 0.500000 1.000000
vt 0.610485 0.954235
vt 0.389515 0.954235
vt 0.343750 0.843750
vt 0.343750 0.843750
vt 0.389515 0.954235
vt 0.610485 0.733265
vt 0.656250 0.843750
vt 0.656250 0.843750
vt 0.610485 0.733265
vt 0.389515 0.733265
vt 0.500000 0.687500
vt 0.500000 0.687500
vt 0.389515 0.733265
vt 0.500000 1.000000
vt 0.500000 1.000000
vt 0.610485 0.954235
vt 0.610485 0.954235
vt 0.389515 0.954235
vt 0.343750 0.843750
vt 0.610485 0.733265
vt 0.656250 0.843750
vt 0.389515 0.733265
vt 0.500000 0.687500
vt 0.500000 1.000000
vt 0.610485 0.954235
vn 0.707107 0.000000 -0.707106
vn 0.000000 0.000000 -1.000000
vn 0.000000 0.046474 -0.998920
vn 0.706343 0.046474 -0.706342
vn -0.707107 0.000000 -0.707106
vn -0.706343 0.046474 -0.706342
vn -1.000000 0.000000 0.000000
vn -0.998920 0.046474 0.000000
vn -0.707107 0.000000 0.707107
vn -0.706343 0.046474 0.706343
vn -0.000000 0.000000 1.000000
vn 0.000000 0.046474 0.998919
vn 0.707107 0.000000 0.707107
vn 0.706343 0.046474 0.706343
vn 1.000000 0.000000 0.000000
vn 0.998920 0.046474 -0.000000
vn -0.000000 0.532969 -0.846134
vn 0.598308 0.532969 -0.598307
vn -0.598308 0.532969 -0.598307
vn -0.846135 0.532969 0.000000
vn -0.598307 0.532969 0.598308
vn 0.000000 0.532969 0.846135
vn 0.598307 0.532969 0.598308
vn 0.846135 0.532969 -0.000000
vn 0.000000 0.298364 -0.954452
vn 0.674900 0.298365 -0.674899
vn -0.674899 0.298364 -0.674900
vn -0.954452 0.298364 0.000000
vn -0.674898 0.298364 0.674901
vn 0.000000 0.298364 0.954452
vn 0.674899 0.298364 0.674900
vn 0.954452 0.298364 0.000000
vn 0.000000 -0.079351 -0.996847
vn 0.704877 -0.079351 -0.704877
vn -0.704877 -0.079351 -0.704877
vn -0.996847 -0.079351 -0.000000
vn -0.704876 -0.079351 0.704879
vn 0.000000 -0.079351 0.996847
vn 0.704876 -0.079351 0.704878
vn 0.996847 -0.079351 0.000000
vn -0.622036 0.475547 -0.622034
vn -0.879690 0.475547 0.000000
vn 0.622034 0.475547 0.622036
vn 0.879690 0.475547 0.000001
vn -0.672610 0.308527 0.672612
vn 0.000000 0.308527 0.951216
vn 0.000000 0.308528 -0.951215
vn 0.672612 0.308528 -0.672610
vn -0.668147 -0.327351 -0.668147
vn -0.944903 -0.327351 -0.000001
vn -0.944903 0.327351 -0.000000
vn -0.668148 0.327351 -0.668147
vn 0.668147 -0.327351 0.668147
vn 0.944903 -0.327351 -0.000000
vn 0.944903 0.327351 0.000001
vn 0.668147 0.327351 0.668147
vn -0.668146 -0.327351 0.668148
vn 0.000000 -0.327351 0.944903
vn 0.000000 0.327352 0.944903
vn -0.668147 0.327351 0.668147
vn 0.000000 -0.327352 -0.944902
vn 0.000000 0.327352 -0.944903
vn 0.668148 -0.327352 -0.668146
vn 0.668148 0.327351 -0.668146
vn 0.000000 1.000000 0.000000
vn 0.000000 1.000000 -0.000005
vn 0.000000 1.000000 0.000003
vn 0.000000 1.000000 -0.000003
vn 0.000000 1.000000 -0.000003
vn 0.000000 1.000000 0.000003
vn 0.000000 1.000000 -0.000003
vn 0.000000 1.000000 0.000003
vn -0.707107 0.000000 -0.707106
vn -1.000000 0.000000 0.000000
vn 0.707106 0.000000 0.707107
vn 1.000000 0.000000 0.000000
vn -0.707106 0.000000 0.707107
vn 0.000000 0.000000 1.000000
vn 0.000000 0.000000 -1.000000
vn 0.707107 0.000000 -0.707107
vn 0.000000 -1.000000 0.000000
vn 0.000000 -1.000000 0.000000
vn 0.000000 -1.000000 0.000000
vn 0.000000 -1.000000 0.000000
vn 0.000000 -1.000000 0.000000
vn 0.000000 -1.000000 0.000000
vn 0.000000 -1.000000 0.000000
vn 0.000000 -1.000000 0.000000
vn 0.000000 -1.000000 0.000000
vn 0.000000 -1.000000 0.000000
vn 0.000000 -1.000000 0.000000
vn 0.000000 -1.000000 0.000000
s 1
g wine_bottle
usemtl initialShadingGroup
f 1/1/1 2/2/2 10/11/3 9/10/4
f 2/2/2 3/3/5 11/12/6 10/11/3
f 3/3/5 4/4/7 12/13/8 11/12/6
f 4/4/7 5/5/9 13/14/10 12/13/8
f 5/5/9 6/6/11 14/15/12 13/14/10
f 6/6/11 7/7/13 15/16/14 14/15/12
f 7/7/13 8/8/15 16/17/16 15/16/14
f 8/8/15 1/9/1 9/18/4 16/17/16
f 9/25/4 10/24/3 18/28/17 17/27/18
f 10/24/3 11/23/6 19/29/19 18/28/17
f 11/23/6 12/22/8 20/30/20 19/29/19
f 12/22/8 13/21/10 21/31/21 20/30/20
f 13/21/10 14/20/12 22/32/22 21/31/21
f 14/20/12 15/19/14 23/33/23 22/32/22
f 15/19/14 16/26/16 24/34/24 23/33/23
f 16/26/16 9/25/4 17/27/18 24/34/24
f 17/27/18 18/28/17 26/36/25 25/35/26
f 18/28/17 19/29/19 27/37/27 26/36/25
f 19/29/19 20/30/20 28/38/28 27/37/27
f 20/30/20 21/31/21 29/39/29 28/38/28
f 21/31/21 22/32/22 30/40/30 29/39/29
f 22/32/22 23/33/23 31/41/31 30/40/30
f 23/33/23 24/34/24 32/42/32 31/41/31
f 24/34/24 17/27/18 25/35/26 32/42/32
f 25/35/26 26/36/25 34/44/33 33/43/34
f 26/36/25 27/37/27 35/45/35 34/44/33
f 27/37/27 28/38/28 36/46/36 35/45/35
f 28/38/28 29/39/29 37/47/37 36/46/36
f 29/39/29 30/40/30 38/48/38 37/47/37
f 30/40/30 31/41/31 39/49/39 38/48/38
f 31/41/31 32/42/32 40/50/40 39/49/39
f 32/42/32 25/35/26 33/43/34 40/50/40
s 2
f 65/75/41 66/76/42 67/77/43 68/78/44
f 69/79/45 70/80/46 67/77/43 66/76/42
f 71/81/47 65/75/41 68/78/44 72/82/48
s 1
f 49/59/49 50/60/50 51/61/51 52/62/52
f 53/63/53 54/64/54 55/65/55 56/66/56
f 57/67/57 58/68/58 59/69/59 60/70/60
f 58/68/58 53/63/53 56/66/56 59/69/59
f 50/60/50 57/67/57 60/70/60 51/61/51
f 61/71/61 49/59/49 52/62/52 62/72/62
f 54/64/54 63/73/63 64/74/64 55/65/55
f 63/73/63 61/71/61 62/72/62 64/74/64
f 35/45/35 36/46/36 50/60/50 49/59/49
f 42/52/65 41/51/66 52/62/52 51/61/51
f 39/49/39 40/50/40 54/64/54 53/63/53
f 44/54/67 43/53/68 56/66/56 55/65/55
f 37/47/37 38/48/38 58/68/58 57/67/57
f 46/56/69 45/55/70 60/70/60 59/69/59
f 38/48/38 39/49/39 53/63/53 58/68/58
f 43/53/68 46/56/69 59/69/59 56/66/56
f 36/46/36 37/47/37 57/67/57 50/60/50
f 45/55/70 42/52/65 51/61/51 60/70/60
f 34/44/33 35/45/35 49/59/49 61/71/61
f 41/51/66 47/57/71 62/72/62 52/62/52
f 40/50/40 33/43/34 63/73/63 54/64/54
f 48/58/72 44/54/67 55/65/55 64/74/64
f 33/43/34 34/44/33 61/71/61 63/73/63
f 47/57/71 48/58/72 64/74/64 62/72/62
s 2
f 41/51/73 42/52/74 66/76/42 65/75/41
f 43/53/75 44/54/76 68/78/44 67/77/43
f 45/55/77 46/56/78 70/80/46 69/79/45
f 46/56/78 43/53/75 67/77/43 70/80/46
f 42/52/74 45/55/77 69/79/45 66/76/42
f 47/57/79 41/51/73 65/75/41 71/81/47
f 44/54/76 48/58/80 72/82/48 68/78/44
f 48/58/80 47/57/79 71/81/47 72/82/48
s off
f 2/2/81 1/1/82 6/6/83 5/5/84
f 7/7/85 6/6/86 1/9/87 8/8/88
f 3/3/89 2/2/90 5/5/91 4/4/92
