# This file uses centimeters as units for non-parametric coordinates.

mtllib wineglass.mtl
g default
v -11.432772 76.468544 -10.796950
v -14.847809 76.468544 -12.211506
v -18.262844 76.468544 -10.796950
v -19.677399 76.468544 -7.381913
v -18.262844 76.468544 -3.966875
v -14.847809 76.468544 -2.552320
v -11.432772 76.468544 -3.966875
v -10.018215 76.468544 -7.381913
v -19.677399 77.204514 -7.381913
v -18.262844 77.204514 -3.966875
v -14.847809 77.204514 -2.552320
v -11.432772 77.204514 -3.966875
v -10.018215 77.204514 -7.381913
v -11.432772 77.204514 -10.796949
v -14.847809 77.204514 -12.211506
v -18.262844 77.204514 -10.796949
v -12.776779 77.529457 -9.452943
v -14.847809 77.529457 -10.310791
v -14.847809 90.979004 -8.294228
v -14.202703 90.979004 -8.027017
v -16.918839 77.529457 -9.452943
v -15.492912 90.979004 -8.027017
v -17.776688 77.529457 -7.381913
v -15.760122 90.979004 -7.381913
v -16.918839 77.529457 -5.310883
v -15.492912 90.979004 -6.736808
v -14.847809 77.529457 -4.453034
v -14.847809 90.979004 -6.469598
v -12.776779 77.529457 -5.310883
v -14.202703 90.979004 -6.736808
v -11.918930 77.529457 -7.381913
v -13.935492 90.979004 -7.381913
v -15.492912 78.317429 -8.027017
v -15.760122 78.317429 -7.381913
v -15.492912 78.317429 -6.736808
v -14.847809 78.317429 -6.469598
v -14.202703 78.317429 -6.736808
v -13.935492 78.317429 -7.381913
v -14.202703 78.317429 -8.027017
v -14.847809 78.317429 -8.294228
v -15.575850 85.595207 -7.381913
v -15.362613 85.595207 -6.867109
v -14.847809 85.595207 -6.653872
v -14.333005 85.595207 -6.867109
v -14.119768 85.595207 -7.381913
v -14.333005 85.595207 -7.896716
v -14.847809 85.595207 -8.109954
v -15.362613 85.595207 -7.896716
v -12.985211 91.568596 -9.244505
v -14.847812 91.568596 -10.016015
v -16.710400 91.568596 -9.244505
v -17.481913 91.568596 -7.381914
v -16.710400 91.568596 -5.519320
v -14.847812 91.568596 -4.747811
v -12.985211 91.568596 -5.519320
v -12.213702 91.568596 -7.381914
v -10.706789 94.394554 -11.522923
v -14.847817 94.394554 -13.238182
v -18.988819 94.394554 -11.522923
v -20.704086 94.394554 -7.381914
v -18.988819 94.394554 -3.240902
v -14.847817 94.394554 -1.525643
v -10.706789 94.394554 -3.240902
v -8.991531 94.394554 -7.381914
v -10.706789 105.318542 -11.522923
v -14.847817 105.318542 -13.238182
v -18.988819 105.318542 -11.522923
v -20.704086 105.318542 -7.381914
v -18.988819 105.318542 -3.240902
v -14.847817 105.318542 -1.525643
v -10.706789 105.318542 -3.240902
v -8.991531 105.318542 -7.381914
v -10.980734 105.318542 -11.248981
v -14.847818 105.318542 -12.850769
v -18.714874 105.318542 -11.248981
v -20.316669 105.318542 -7.381914
v -18.714874 105.318542 -3.514846
v -14.847818 105.318542 -1.913057
v -10.980734 105.318542 -3.514846
v -9.378946 105.318542 -7.381914
v -10.980734 101.138939 -11.248981
v -14.847818 101.138939 -12.850769
v -18.714874 101.138939 -11.248981
v -20.316669 101.138939 -7.381914
v -18.714874 101.138939 -3.514846
v -14.847818 101.138939 -1.913057
v -10.980734 101.138939 -3.514846
v -9.378946 101.138939 -7.381914
v -21.808615 97.532700 -7.381915
v -19.769840 97.532700 -12.303942
v -14.847819 97.532700 -14.342710
v -9.925768 97.532700 -12.303942
v -7.887002 97.532700 -7.381915
v -9.925768 97.532700 -2.459883
v -14.847819 97.532700 -0.421115
v -19.769840 97.532700 -2.459883
vt 0.375000 0.312500
vt 0.406250 0.312500
vt 0.437500 0.312500
vt 0.468750 0.312500
vt 0.500000 0.312500
vt 0.531250 0.312500
vt 0.562500 0.312500
vt 0.593750 0.312500
vt 0.625000 0.312500
vt 0.468750 0.500000
vt 0.500000 0.500000
vt 0.531250 0.500000
vt 0.562500 0.500000
vt 0.593750 0.500000
vt 0.625000 0.500000
vt 0.375000 0.500000
vt 0.406250 0.500000
vt 0.437500 0.500000
vt 0.375000 0.500000
vt 0.406250 0.500000
vt 0.406250 0.687500
vt 0.375000 0.687500
vt 0.437500 0.500000
vt 0.437500 0.687500
vt 0.468750 0.500000
vt 0.468750 0.687500
vt 0.500000 0.500000
vt 0.500000 0.687500
vt 0.531250 0.500000
vt 0.531250 0.687500
vt 0.562500 0.500000
vt 0.562500 0.687500
vt 0.593750 0.500000
vt 0.593750 0.687500
vt 0.625000 0.500000
vt 0.625000 0.687500
vt 0.437500 0.593750
vt 0.468750 0.593750
vt 0.500000 0.593750
vt 0.531250 0.593750
vt 0.562500 0.593750
vt 0.593750 0.593750
vt 0.625000 0.593750
vt 0.375000 0.593750
vt 0.406250 0.593750
vt 0.468750 0.640625
vt 0.500000 0.640625
vt 0.531250 0.640625
vt 0.562500 0.640625
vt 0.593750 0.640625
vt 0.625000 0.640625
vt 0.375000 0.640625
vt 0.406250 0.640625
vt 0.437500 0.640625
vt 0.000000 0.000000
vt 1.000000 0.000000
vt 1.000000 1.000000
vt 0.000000 1.000000
vt 0.000000 0.000000
vt 1.000000 0.000000
vt 1.000000 1.000000
vt 0.000000 1.000000
vt 0.000000 0.000000
vt 1.000000 0.000000
vt 1.000000 1.000000
vt 0.000000 1.000000
vt 0.000000 0.000000
vt 1.000000 0.000000
vt 1.000000 1.000000
vt 0.000000 1.000000
vt 0.000000 0.000000
vt 1.000000 0.000000
vt 1.000000 1.000000
vt 0.000000 1.000000
vt 0.000000 0.000000
vt 1.000000 0.000000
vt 1.000000 1.000000
vt 0.000000 1.000000
vt 0.000000 0.000000
vt 1.000000 0.000000
vt 1.000000 1.000000
vt 0.000000 1.000000
vt 0.000000 0.000000
vt 1.000000 0.000000
vt 1.000000 1.000000
vt 0.000000 1.000000
vt 0.000000 0.000000
vt 1.000000 0.000000
vt 1.000000 1.000000
vt 0.000000 1.000000
vt 0.000000 0.000000
vt 1.000000 0.000000
vt 1.000000 1.000000
vt 0.000000 1.000000
vt 0.000000 0.000000
vt 1.000000 0.000000
vt 1.000000 1.000000
vt 0.000000 1.000000
vt 0.000000 0.000000
vt 1.000000 0.000000
vt 1.000000 1.000000
vt 0.000000 1.000000
vt 0.000000 0.000000
vt 1.000000 0.000000
vt 1.000000 1.000000
vt 0.000000 1.000000
vt 0.000000 0.000000
vt 1.000000 0.000000
vt 1.000000 1.000000
vt 0.000000 1.000000
vt 0.000000 0.000000
vt 1.000000 0.000000
vt 1.000000 1.000000
vt 0.000000 1.000000
vt 0.000000 0.000000
vt 1.000000 0.000000
vt 1.000000 1.000000
vt 0.000000 1.000000
vt 0.000000 0.000000
vt 1.000000 0.000000
vt 1.000000 1.000000
vt 0.000000 1.000000
vt 0.000000 0.000000
vt 1.000000 0.000000
vt 1.000000 1.000000
vt 0.000000 1.000000
vt 0.000000 0.000000
vt 1.000000 0.000000
vt 1.000000 1.000000
vt 0.000000 1.000000
vt 0.000000 0.000000
vt 1.000000 0.000000
vt 1.000000 1.000000
vt 0.000000 1.000000
vt 0.000000 0.000000
vt 1.000000 0.000000
vt 1.000000 1.000000
vt 0.000000 1.000000
vt 0.000000 0.000000
vt 1.000000 0.000000
vt 1.000000 1.000000
vt 0.000000 1.000000
vt 0.000000 0.000000
vt 1.000000 0.000000
vt 1.000000 1.000000
vt 0.000000 1.000000
vt 0.000000 0.000000
vt 1.000000 0.000000
vt 1.000000 1.000000
vt 0.000000 1.000000
vt 0.000000 0.000000
vt 1.000000 0.000000
vt 1.000000 1.000000
vt 0.000000 1.000000
vt 0.000000 0.000000
vt 1.000000 0.000000
vt 1.000000 1.000000
vt 0.000000 1.000000
vt 0.000000 0.000000
vt 1.000000 0.000000
vt 1.000000 1.000000
vt 0.000000 1.000000
vt 0.000000 0.000000
vt 1.000000 0.000000
vt 1.000000 1.000000
vt 0.000000 1.000000
vt 0.000000 0.000000
vt 1.000000 0.000000
vt 1.000000 1.000000
vt 0.000000 1.000000
vt 0.000000 0.000000
vt 1.000000 0.000000
vt 1.000000 1.000000
vt 0.000000 1.000000
vt 0.000000 0.000000
vt 1.000000 0.000000
vt 1.000000 1.000000
vt 0.000000 1.000000
vt 0.000000 0.000000
vt 1.000000 0.000000
vt 1.000000 1.000000
vt 0.000000 1.000000
vt 0.000000 0.000000
vt 1.000000 0.000000
vt 1.000000 1.000000
vt 0.000000 1.000000
vt 0.000000 0.000000
vt 1.000000 0.000000
vt 1.000000 1.000000
vt 0.000000 1.000000
vt 0.000000 0.000000
vt 1.000000 0.000000
vt 1.000000 1.000000
vt 0.000000 1.000000
vt 0.000000 0.000000
vt 1.000000 0.000000
vt 1.000000 1.000000
vt 0.000000 1.000000
vt 0.000000 0.000000
vt 1.000000 0.000000
vt 1.000000 1.000000
vt 0.000000 1.000000
vt 0.000000 0.000000
vt 1.000000 0.000000
vt 1.000000 1.000000
vt 0.000000 1.000000
vt 0.000000 0.000000
vt 1.000000 0.000000
vt 1.000000 1.000000
vt 0.000000 1.000000
vt 0.000000 0.000000
vt 1.000000 0.000000
vt 1.000000 1.000000
vt 0.000000 1.000000
vt 1.000000 0.287271
vt 0.000000 0.287271
vt 1.000000 0.287271
vt 0.000000 0.287271
vt 1.000000 0.287271
vt 0.000000 0.287271
vt 1.000000 0.287271
vt 0.000000 0.287271
vt 1.000000 0.287271
vt 0.000000 0.287271
vt 1.000000 0.287271
vt 0.000000 0.287271
vt 1.000000 0.287271
vt 0.000000 0.287271
vt 1.000000 0.287271
vt 0.000000 0.287271
vn 0.707106 -0.000031 -0.707107
vn 0.000000 -0.000031 -1.000000
vn 0.000000 -0.568916 -0.822396
vn 0.581521 -0.568917 -0.581522
vn -0.707107 -0.000031 -0.707106
vn -0.581522 -0.568917 -0.581520
vn -1.000000 -0.000031 0.000000
vn -0.822395 -0.568917 0.000001
vn -0.707107 -0.000031 0.707107
vn -0.581522 -0.568917 0.581521
vn 0.000000 -0.000031 1.000000
vn 0.000000 -0.568917 0.822395
vn 0.707106 -0.000031 0.707108
vn 0.581521 -0.568918 0.581520
vn 1.000000 -0.000031 0.000000
vn 0.822395 -0.568917 -0.000002
vn -1.000000 -0.000000 0.000000
vn -0.707107 0.000000 0.707107
vn -0.445235 0.776872 0.445237
vn -0.629658 0.776872 -0.000000
vn -0.000000 0.000000 1.000000
vn -0.000000 0.776871 0.629659
vn 0.707107 0.000000 0.707107
vn 0.445235 0.776873 0.445236
vn 1.000000 0.000000 -0.000000
vn 0.629658 0.776873 -0.000000
vn 0.707106 0.000000 -0.707107
vn 0.445235 0.776872 -0.445236
vn 0.000000 0.000000 -1.000000
vn -0.000000 0.776872 -0.629659
vn -0.707106 -0.000000 -0.707107
vn -0.445235 0.776872 -0.445236
vn -0.000000 0.975671 -0.219241
vn 0.155026 0.975671 -0.155027
vn -0.155026 0.975671 -0.155027
vn -0.219240 0.975671 -0.000000
vn -0.155026 0.975671 0.155027
vn 0.000000 0.975671 0.219241
vn 0.155026 0.975671 0.155027
vn 0.219239 0.975671 -0.000000
vn -0.845609 0.533802 0.000000
vn -0.597936 0.533802 -0.597936
vn -0.597936 0.533803 0.597936
vn 0.000000 0.533802 0.845610
vn 0.597935 0.533802 0.597937
vn 0.845610 0.533802 -0.000001
vn 0.597936 0.533802 -0.597937
vn -0.000000 0.533802 -0.845610
vn 0.000000 -0.777136 -0.629333
vn 0.445004 -0.777136 -0.445006
vn -0.445005 -0.777136 -0.445005
vn -0.629332 -0.777137 0.000000
vn -0.445005 -0.777137 0.445005
vn -0.000000 -0.777136 0.629333
vn 0.445004 -0.777137 0.445006
vn 0.629332 -0.777137 -0.000001
vn 0.000000 -0.512168 -0.858885
vn 0.607322 -0.512168 -0.607325
vn -0.607323 -0.512168 -0.607324
vn -0.858885 -0.512168 0.000000
vn -0.607324 -0.512168 0.607323
vn -0.000000 -0.512168 0.858885
vn 0.607323 -0.512168 0.607325
vn 0.858885 -0.512169 -0.000000
vn -0.000000 0.004976 -0.999988
vn 0.707097 0.004976 -0.707099
vn -0.707098 0.004976 -0.707098
vn -0.999988 0.004976 -0.000000
vn -0.707098 0.004976 0.707098
vn -0.000000 0.004976 0.999988
vn 0.707097 0.004976 0.707099
vn 0.999988 0.004976 0.000000
vn 0.696669 0.171183 -0.696670
vn -0.000000 0.171183 -0.985239
vn -0.000000 0.119114 0.992881
vn -0.702072 0.119115 0.702073
vn -0.696669 0.171183 -0.696670
vn 0.702073 0.119114 0.702073
vn -0.985239 0.171183 -0.000000
vn 0.992881 0.119115 -0.000000
vn -0.696670 0.171183 0.696669
vn 0.702073 0.119114 -0.702073
vn 0.000000 0.171183 0.985239
vn -0.000000 0.119114 -0.992881
vn 0.696669 0.171183 0.696670
vn -0.702072 0.119115 -0.702074
vn 0.985239 0.171183 0.000000
vn -0.992881 0.119114 -0.000000
vn -0.000000 0.700419 0.713731
vn -0.368849 0.853170 0.368850
vn 0.504685 0.700420 0.504684
vn 0.521632 0.853171 -0.000000
vn 0.368849 0.853171 -0.368849
vn -0.000000 0.700419 -0.713732
vn -0.504685 0.700418 -0.504686
vn -0.521632 0.853171 -0.000000
vn 0.000000 -1.000000 0.000000
vn 0.000000 -1.000000 0.000000
vn 0.000000 -1.000000 0.000000
vn 0.000000 -1.000000 0.000000
vn 0.000000 -1.000000 0.000000
vn 0.000000 -1.000000 0.000000
vn 0.000000 -1.000000 0.000000
vn 0.000000 -1.000000 0.000000
vn 0.000000 -1.000000 0.000000
vn 0.000000 -1.000000 0.000000
vn 0.000000 -1.000000 0.000000
vn 0.000000 -1.000000 0.000000
s 1
g wine_glass
usemtl initialShadingGroup
f 46/52/1 47/53/2 19/21/3 20/22/4
f 47/53/2 48/54/5 22/24/6 19/21/3
f 48/54/5 41/46/7 24/26/8 22/24/6
f 41/46/7 42/47/9 26/28/10 24/26/8
f 42/47/9 43/48/11 28/30/12 26/28/10
f 43/48/11 44/49/13 30/32/14 28/30/12
f 44/49/13 45/50/15 32/34/16 30/32/14
f 45/50/15 46/51/1 20/36/4 32/34/16
f 4/4/17 5/5/18 10/11/19 9/10/20
f 5/5/18 6/6/21 11/12/22 10/11/19
f 6/6/21 7/7/23 12/13/24 11/12/22
f 7/7/23 8/8/25 13/14/26 12/13/24
f 8/8/25 1/9/27 14/15/28 13/14/26
f 1/1/27 2/2/29 15/17/30 14/16/28
f 2/2/29 3/3/31 16/18/32 15/17/30
f 3/3/31 4/4/17 9/10/20 16/18/32
f 14/16/28 15/17/30 18/20/33 17/19/34
f 15/17/30 16/18/32 21/23/35 18/20/33
f 16/18/32 9/10/20 23/25/36 21/23/35
f 9/10/20 10/11/19 25/27/37 23/25/36
f 10/11/19 11/12/22 27/29/38 25/27/37
f 11/12/22 12/13/24 29/31/39 27/29/38
f 12/13/24 13/14/26 31/33/40 29/31/39
f 13/14/26 14/15/28 17/35/34 31/33/40
f 21/23/35 23/25/36 34/38/41 33/37/42
f 23/25/36 25/27/37 35/39/43 34/38/41
f 25/27/37 27/29/38 36/40/44 35/39/43
f 27/29/38 29/31/39 37/41/45 36/40/44
f 29/31/39 31/33/40 38/42/46 37/41/45
f 31/33/40 17/35/34 39/43/47 38/42/46
f 17/19/34 18/20/33 40/45/48 39/44/47
f 18/20/33 21/23/35 33/37/42 40/45/48
f 34/38/41 35/39/43 42/47/9 41/46/7
f 35/39/43 36/40/44 43/48/11 42/47/9
f 36/40/44 37/41/45 44/49/13 43/48/11
f 37/41/45 38/42/46 45/50/15 44/49/13
f 38/42/46 39/43/47 46/51/1 45/50/15
f 39/44/47 40/45/48 47/53/2 46/52/1
f 40/45/48 33/37/42 48/54/5 47/53/2
f 33/37/42 34/38/41 41/46/7 48/54/5
f 20/55/4 19/56/3 50/57/49 49/58/50
f 19/59/3 22/60/6 51/61/51 50/62/49
f 22/63/6 24/64/8 52/65/52 51/66/51
f 24/67/8 26/68/10 53/69/53 52/70/52
f 26/71/10 28/72/12 54/73/54 53/74/53
f 28/75/12 30/76/14 55/77/55 54/78/54
f 30/79/14 32/80/16 56/81/56 55/82/55
f 32/83/16 20/84/4 49/85/50 56/86/56
f 49/87/50 50/88/49 58/89/57 57/90/58
f 50/91/49 51/92/51 59/93/59 58/94/57
f 51/95/51 52/96/52 60/97/60 59/98/59
f 52/99/52 53/100/53 61/101/61 60/102/60
f 53/103/53 54/104/54 62/105/62 61/106/61
f 54/107/54 55/108/55 63/109/63 62/110/62
f 55/111/55 56/112/56 64/113/64 63/114/63
f 56/115/56 49/116/50 57/117/58 64/118/64
f 57/119/58 58/120/57 91/219/65 92/222/66
f 58/123/57 59/124/59 90/217/67 91/220/65
f 59/127/59 60/128/60 89/215/68 90/218/67
f 60/131/60 61/132/61 96/229/69 89/216/68
f 61/135/61 62/136/62 95/227/70 96/230/69
f 62/139/62 63/140/63 94/225/71 95/228/70
f 63/143/63 64/144/64 93/223/72 94/226/71
f 64/147/64 57/148/58 92/221/66 93/224/72
f 65/151/73 66/152/74 74/153/75 73/154/76
f 66/155/74 67/156/77 75/157/78 74/158/75
f 67/159/77 68/160/79 76/161/80 75/162/78
f 68/163/79 69/164/81 77/165/82 76/166/80
f 69/167/81 70/168/83 78/169/84 77/170/82
f 70/171/83 71/172/85 79/173/86 78/174/84
f 71/175/85 72/176/87 80/177/88 79/178/86
f 72/179/87 65/180/73 73/181/76 80/182/88
f 73/183/76 74/184/75 82/185/89 81/186/90
f 74/187/75 75/188/78 83/189/91 82/190/89
f 75/191/78 76/192/80 84/193/92 83/194/91
f 76/195/80 77/196/82 85/197/93 84/198/92
f 77/199/82 78/200/84 86/201/94 85/202/93
f 78/203/84 79/204/86 87/205/95 86/206/94
f 79/207/86 80/208/88 88/209/96 87/210/95
f 80/211/88 73/212/76 81/213/90 88/214/96
f 84/198/92 85/197/93 88/214/96 81/213/90
f 82/190/89 83/194/91 84/198/92 81/186/90
f 86/206/94 87/210/95 88/214/96 85/202/93
f 90/218/67 89/215/68 68/129/79 67/130/77
f 91/220/65 90/217/67 67/125/77 66/126/74
f 92/222/66 91/219/65 66/121/74 65/122/73
f 93/224/72 92/221/66 65/149/73 72/150/87
f 94/226/71 93/223/72 72/145/87 71/146/85
f 95/228/70 94/225/71 71/141/85 70/142/83
f 96/230/69 95/227/70 70/137/83 69/138/81
f 89/216/68 96/229/69 69/133/81 68/134/79
s off
f 2/2/97 1/1/98 6/6/99 5/5/100
f 7/7/101 6/6/102 1/9/103 8/8/104
f 3/3/105 2/2/106 5/5/107 4/4/108
